<?xml version="1.0" encoding="UTF-8" standalone="no"?>
<svg 
    role="img"
    version="1.1"
    width="245"
    height="151"
    viewBox="0 0 245 151"
    
    xmlns="http://www.w3.org/2000/svg"
    xmlns:svg="http://www.w3.org/2000/svg"
    xmlns:inkscape="http://www.inkscape.org/namespaces/inkscape"
    xmlns:sodipodi="http://sodipodi.sourceforge.net/DTD/sodipodi-0.dtd"

    xmlns:rdf="http://www.w3.org/1999/02/22-rdf-syntax-ns#" 
	xmlns:rdfs="http://www.w3.org/2000/01/rdf-schema#"
    xmlns:dcterms="http://purl.org/dc/terms/"
    xmlns:cc="http://creativecommons.org/ns#"
        
    xmlns:jip="https://www.thejanic.com/ip/janic-ip.rdf#"
    
    xmlns:jnc="https://www.thejanic.com/agents/janic-agents.rdf#"
    xmlns:jw3="https://www.thejanic.com/"
    >

    <metadata>
        <rdf:RDF>
            <dcterms:title rdf:resource="jip:janic-logo-2-title"/>
            <dcterms:description rdf:resource="jip:janic-logo-2"/>
            <dcterms:abstract rdf:resource="jip:janic-logo-2-abstract"/>
            <dcterms:rightsHolder rdf:resource="jip:rights-holder"/>
            <cc:license rdf:resource="jip:license"/>
        </rdf:RDF>
    </metadata>

    inkscape:version="1.3 (0e150ed6c4, 2023-07-21)"

    <title>The JaNic Logo</title>
    <desc>For a more detailed description, please visit www.thejanic.com/ip/janic-ip.rdf#janic-logo-2</desc>
        
    <defs>
        <style></style>
    </defs>

    <g
        inkscape:groupmode="layer"
        id="layer-0"
        inkscape:label="layer-0">
        <rect
            style="display:inline;fill:#004200;fill-opacity:1;stroke:none"
            id="rectangle-full"
            width="245"
            height="151"
            x="0"
            y="0" />
    </g>
    <g
        inkscape:groupmode="layer"
        id="text-Nic"
        inkscape:label="layer-1"
        style="display:inline">
        <path
            d="m 108.295,52.963008 v 17.89258 l 21.60352,34.408202 h 11.09961 l -0.29883,-19.399018 0.59961,-49.100771 -9.59961,0.70118 0.19922,51.698997 h -0.79883 z"
            style="display:inline;font-weight:500;font-size:100px;font-family:'Alegreya Sans SC';-inkscape-font-specification:'Alegreya Sans SC, Medium';letter-spacing:1;dominant-baseline:middle;fill:#ffffff;fill-opacity:1;stroke:#ffffff;stroke-width:0"
            id="path-N"
            aria-label="right half of upper case letter N"
            sodipodi:nodetypes="cccccccccc" />
        <path
            d="m 169.455,84.650003 0.4,15.899997 h -9.6 l 0.4,-14.999997 -0.4,-35.1 h 9.7 z"
            id="path-i"
            style="font-weight:500;font-size:100px;font-family:'Alegreya Sans SC', sans-serif;-inkscape-font-specification:'Alegreya Sans SC, sans-serif, Medium';letter-spacing:5;fill:#ffffff"
            class="fill-white"
            aria-label="lower case letter i" />
        <path
            d="m 210.787,49.8 q 8.2,0 14.3,3.2 l -1.8,8.5 -0.9,0.3 q -2.5,-1.9 -5.8,-3 -3.2,-1.1 -6.7,-1.1 -13.8,0 -13.8,17.2 0,9 3.6,13.7 3.6,4.6 10.5,4.6 3.4,0 6.9,-1.1 3.5,-1.1 6.2,-3 l 1,0.5 -0.8,8.5 q -6.7,3.1 -13.8,3.1 -11.5,0 -17.6,-6.6 -6.1,-6.6 -6.1,-18.8 0,-12.5 6.4,-19.2 6.5,-6.8 18.4,-6.8 z"
            id="path-c"
            style="display:inline;font-weight:500;font-size:100px;font-family:'Alegreya Sans SC', sans-serif;-inkscape-font-specification:'Alegreya Sans SC, sans-serif, Medium';letter-spacing:5;fill:#ffffff"
            class="fill-white"
            aria-label="lower case letter c" />
    </g>
    <g
        inkscape:groupmode="layer"
        id="layer-2"
        inkscape:label="layer-2">
        <rect
            style="fill:#ffffff;fill-opacity:1;stroke:none"
            id="rectangle-half"
            width="122.5"
            height="151"
            x="0"
            y="0" />
    </g>
    <g
     inkscape:groupmode="layer"
     id="text-JaN"
     inkscape:label="layer-3">
        <path
            d="m 41.475001,81.199998 0.2,9.3 q 0,7.8 -4.1,12.800002 -4,5.1 -14,9.5 l -3.6,-5.7 V 106 q 6.7,-3.5 9.4,-6.800002 2.8,-3.4 2.8,-8.7 v -8.3 l -0.4,-36 -11.7,0.1 -0.9,-0.8 0.6,-7.3 h 22.3 z"
            id="path-J"
            style="font-weight:500;font-size:100px;font-family:'Alegreya Sans SC', sans-serif;-inkscape-font-specification:'Alegreya Sans SC, sans-serif, Medium';letter-spacing:1;dominant-baseline:middle;fill:#004200;stroke:#ff4200;stroke-width:0"
            aria-label="upper case letter J" />
        <path
            d="m 95.865,100.55 h -9.7 l -1.3,-6.200001 -1.8,-5.5 -11.2,-0.1 -10,0.1 -1.9,5 -1.4,6.700001 h -9.5 l 18.7,-50.100001 h 11.2 z m -15.3,-19.200001 -7.1,-21.9 h -0.7 l -8.1,21.9 7.9,0.1 z"
            id="path-a"
            style="font-weight:500;font-size:100px;font-family:'Alegreya Sans SC', sans-serif;-inkscape-font-specification:'Alegreya Sans SC, sans-serif, Medium';letter-spacing:1;dominant-baseline:middle;fill:#004200;stroke:#ff4200;stroke-width:0"
            aria-label="lower case letter a" />
        <path
            d="m 103.64648,45.200001 0.29883,19.199218 -0.59961,49.529301 9.59961,-0.70118 -0.19922,-51.927729 h 0.79883 l 13.95117,22.146484 V 65.506641 l -12.75,-20.30664 z"
            style="font-weight:500;font-size:100px;font-family:'Alegreya Sans SC';-inkscape-font-specification:'Alegreya Sans SC, Medium';letter-spacing:1;dominant-baseline:middle;display:inline;fill:#004200;stroke:#ffffff;stroke-width:0"
            id="path-N-rotated-180"
            aria-label="left half of upper case letter N" />
    </g>
    <g
        inkscape:groupmode="layer"
        id="layer4"
        inkscape:label="layer-4"
        style="display:inline">
        <rect
            style="fill:none;fill-opacity:1;stroke:#004200;stroke-width:2.5;stroke-dasharray:none;stroke-opacity:1"
            id="rectangle-border"
            width="245"
            height="151"
            x="0"
            y="0" />
    </g>

</svg>
